<svg viewBox="0 0 16 16" fill="none" xmlns="http://www.w3.org/2000/svg" id="Download--Streamline-Radix" height="16" width="16">
  <desc>
    Download Streamline Icon: https://streamlinehq.com
  </desc>
  <path fill-rule="evenodd" clip-rule="evenodd" d="M8.000053333333334 1.1199893333333333c0.26509866666666665 0 0.48 0.21490133333333333 0.48 0.48v7.374506666666666l2.38064 -2.3805866666666664c0.18741333333333332 -0.187456 0.49130666666666667 -0.187456 0.67872 0 0.18752000000000002 0.187456 0.18752000000000002 0.4913706666666667 0 0.6788266666666666l-3.199946666666667 3.2c-0.187456 0.18744533333333332 -0.4913706666666667 0.18744533333333332 -0.6788266666666666 0l-3.2 -3.2c-0.187456 -0.187456 -0.187456 -0.4913706666666667 0 -0.6788266666666666 0.187456 -0.187456 0.4913706666666667 -0.187456 0.6788266666666666 0l2.3805866666666664 2.3805866666666664v-7.374506666666666c0 -0.26509866666666665 0.21490133333333333 -0.48 0.48 -0.48ZM2.6666666666666665 10.666666666666666c0.29454933333333333 0 0.5333333333333333 0.23882666666666666 0.5333333333333333 0.5333333333333333V12.8c0 0.5908266666666666 0.47536 1.0666666666666667 1.0627733333333333 1.0666666666666667h7.47184c0.58848 0 1.0653866666666667 -0.4770133333333333 1.0653866666666667 -1.0666666666666667v-1.6c0 -0.2945066666666667 0.23882666666666666 -0.5333333333333333 0.5333333333333333 -0.5333333333333333s0.5333333333333333 0.23882666666666666 0.5333333333333333 0.5333333333333333V12.8c0 1.1777066666666667 -0.9533866666666667 2.1333333333333333 -2.1320533333333334 2.1333333333333333H4.2627733333333335C3.0828693333333335 14.933333333333334 2.1333333333333333 13.976533333333332 2.1333333333333333 12.8v-1.6c0 -0.2945066666666667 0.238784 -0.5333333333333333 0.5333333333333333 -0.5333333333333333Z" fill="#ffffff" stroke-width="1.0667"></path>
</svg>