<svg viewBox="0 0 16 16" fill="none" xmlns="http://www.w3.org/2000/svg" id="External-Link--Streamline-Radix" height="16" width="16">
  <desc>
    External Link Streamline Icon: https://streamlinehq.com
  </desc>
  <path fill-rule="evenodd" clip-rule="evenodd" d="M3.2 2.1333333333333333c-0.5890986666666667 0 -1.0666666666666667 0.477568 -1.0666666666666667 1.0666666666666667v9.6c0 0.58912 0.477568 1.0666666666666667 1.0666666666666667 1.0666666666666667h9.6c0.58912 0 1.0666666666666667 -0.4775466666666666 1.0666666666666667 -1.0666666666666667V9.066666666666666c0 -0.29454933333333333 -0.23882666666666666 -0.5333333333333333 -0.5333333333333333 -0.5333333333333333s-0.5333333333333333 0.238784 -0.5333333333333333 0.5333333333333333V12.8H3.2V3.2l3.7333333333333334 0c0.29454933333333333 0 0.5333333333333333 -0.238784 0.5333333333333333 -0.5333333333333333S7.227882666666666 2.1333333333333333 6.933333333333334 2.1333333333333333H3.2Zm10.510506666666666 0.15621333333333332c0.05109333333333333 0.051136 0.08970666666666666 0.11006933333333334 0.11573333333333333 0.17297066666666666 0.0256 0.061952 0.04 0.12980266666666668 0.040426666666666666 0.20094933333333334l0 0.0032v3.2c0 0.29454933333333333 -0.23882666666666666 0.5333333333333333 -0.5333333333333333 0.5333333333333333s-0.5333333333333333 -0.238784 -0.5333333333333333 -0.5333333333333333V3.954250666666667L7.310453333333333 9.443786666666666c-0.20827733333333331 0.208288 -0.5459626666666666 0.208288 -0.7542399999999999 0 -0.208288 -0.20827733333333331 -0.208288 -0.5459626666666666 0 -0.7542399999999999L12.04576 3.2H10.133333333333333c-0.29454933333333333 0 -0.5333333333333333 -0.238784 -0.5333333333333333 -0.5333333333333333s0.238784 -0.5333333333333333 0.5333333333333333 -0.5333333333333333h3.2c0.07232 0 0.14122666666666667 0.014389333333333334 0.20415999999999998 0.040469333333333336 0.06293333333333333 0.026026666666666667 0.12181333333333333 0.064608 0.17301333333333335 0.115744Z" fill="#ffffff" stroke-width="1.0667"></path>
</svg>